<svg t="1708691738755" class="icon" viewBox="0 0 1365 1024" version="1.1" xmlns="http://www.w3.org/2000/svg" p-id="10532" width="200" height="200"><path d="M1153.706667 373.333333c299.946667 129.194667 247.552 541.013333 6.826666 603.989334H146.346667v-0.853334c-140.544-49.322667-262.912-385.877333 48.554666-537.088l59.221334-3.072c121.6-550.058667 692.906667-479.317333 748.373333-68.266666l151.296 5.290666zM894.293333 832.853333c41.898667-41.898667 41.216-93.610667 41.472-165.376 0-71.509333 0.426667-123.392-41.472-165.290666-29.098667-29.184-64.682667-45.482667-111.786666-45.482667s-83.2 16.298667-112.298667 45.482667c-41.898667 41.898667-40.789333 93.781333-40.789333 165.290666 0 71.594667-1.109333 123.477333 40.789333 165.376 29.013333 29.098667 65.194667 45.482667 112.298667 45.482667s82.688-16.384 111.786666-45.482667z m-524.629333-48.298666c-15.701333-17.408-20.394667-37.205333-20.394667-117.077334 0-79.786667 4.693333-99.498667 20.394667-116.992 11.605333-13.482667 29.866667-21.589333 51.882667-21.589333 40.704 0 61.781333 25.6 69.802666 58.794667h82.176c-14.506667-86.698667-75.093333-130.986667-152.490666-130.986667-45.482667 0-82.773333 16.298667-111.786667 45.482667-41.984 41.898667-40.789333 93.781333-40.789333 165.290666 0 71.594667-1.194667 123.477333 40.789333 165.376 29.013333 29.098667 66.304 45.482667 111.786667 45.482667 76.8 0 138.069333-44.373333 152.490666-130.986667h-82.176c-8.021333 33.109333-29.013333 58.709333-69.802666 58.709334-22.186667 0-40.277333-8.106667-51.882667-21.504zM782.506667 528.896c22.016 0 40.277333 8.789333 51.882666 22.101333 15.616 17.493333 20.309333 36.693333 20.309334 116.48 0 79.872-4.693333 98.986667-20.309334 116.565334a67.669333 67.669333 0 0 1-51.882666 22.016 68.266667 68.266667 0 0 1-52.394667-22.016c-15.786667-17.578667-19.882667-36.693333-19.882667-116.565334 0-79.786667 4.266667-98.986667 19.882667-116.48a68.778667 68.778667 0 0 1 52.394667-22.101333z m353.28 306.432h-92.672l67.072-77.738667c16.469333-19.2 25.6-31.658667 25.6-54.869333 0-43.178667-30.378667-69.717333-72.789334-69.717333-41.045333 0-73.045333 26.282667-73.045333 69.973333h43.776c0-23.210667 14.848-30.549333 29.269333-30.549333 18.517333 0 29.013333 12.117333 29.013334 29.866666 0 11.093333-3.754667 18.602667-12.458667 29.013334L989.866667 835.413333v39.338667h145.834666V835.413333z m-65.024-505.173333c-1.706667-158.378667-175.957333-218.794667-180.48-220.330667 138.410667-225.28 327.168-50.176 320.256 49.322667 141.226667-44.885333 216.490667 167.936 91.050666 227.157333-78.762667-75.264-97.109333-64.682667-230.826666-56.234667z" fill="#69E8FF" p-id="10533"></path></svg>